<mxfile host="app.diagrams.net" modified="2024-01-12T07:36:11.546Z" agent="Mozilla/5.0 (Windows NT 10.0; Win64; x64) AppleWebKit/537.36 (KHTML, like Gecko) Chrome/120.0.0.0 Safari/537.36" version="22.1.18" etag="_YbYyC-Vn86hVCyq09Ah" type="github">
  <diagram name="第 1 页" id="sGEz5siXrSt6GG0Bj9dd">
    <mxGraphModel>
      <root>
        <mxCell id="0" />
        <mxCell id="1" parent="0" />
      </root>
    </mxGraphModel>
  </diagram>
</mxfile>
